<?xml version="1.0" standalone="no"?>
<!DOCTYPE svg PUBLIC "-//W3C//DTD SVG 20010904//EN"
 "http://www.w3.org/TR/2001/REC-SVG-20010904/DTD/svg10.dtd">
<svg version="1.0" xmlns="http://www.w3.org/2000/svg"
 width="614.000000pt" height="700.000000pt" viewBox="0 0 614.000000 700.000000"
 preserveAspectRatio="xMidYMid meet">

<g transform="translate(0.000000,700.000000) scale(0.100000,-0.100000)"
fill="" stroke="none">
<path d="M2906 6984 c-106 -33 -188 -109 -247 -230 -21 -44 -39 -87 -39 -95
-1 -37 -15 -41 -78 -20 -114 39 -193 23 -226 -46 -35 -74 -12 -187 63 -305 23
-36 41 -69 41 -73 0 -15 -85 6 -164 40 -96 42 -119 43 -151 9 -40 -43 -35
-103 20 -210 75 -149 211 -290 487 -506 70 -55 141 -116 158 -136 70 -85 140
-258 140 -346 0 -43 -20 -56 -86 -56 -43 0 -50 3 -88 48 -104 120 -189 184
-298 222 -68 24 -141 35 -363 55 -206 19 -285 38 -326 76 -40 37 -34 59 23 86
60 29 82 61 75 110 -12 73 -77 109 -179 100 -132 -12 -231 -102 -231 -211 0
-112 87 -229 218 -291 83 -40 172 -65 354 -100 143 -28 184 -43 195 -72 4 -10
4 -84 0 -164 -4 -101 -3 -156 5 -181 34 -103 184 -149 298 -93 41 21 69 48
138 135 47 60 100 120 117 131 36 26 121 37 143 19 21 -17 20 -176 -1 -301
-76 -450 -388 -810 -832 -958 -95 -32 -289 -71 -349 -71 l-34 0 3 47 c3 44 5
47 42 60 98 33 176 140 176 240 0 68 -18 110 -69 166 -152 165 -464 102 -525
-104 -20 -65 -20 -74 0 -132 21 -63 83 -130 150 -163 55 -27 55 -27 52 -68
l-3 -41 -90 1 c-49 0 -127 8 -172 17 -514 108 -856 458 -830 851 18 282 256
464 508 390 104 -31 159 -85 159 -157 0 -43 -15 -55 -112 -87 -82 -26 -108
-54 -108 -115 0 -36 5 -48 30 -69 107 -89 355 -36 447 96 25 37 28 50 28 122
0 104 -32 175 -119 261 -111 110 -231 155 -411 155 -231 0 -426 -78 -564 -225
-146 -156 -220 -400 -192 -629 l10 -87 -34 -30 c-52 -46 -71 -139 -40 -199 57
-110 421 -260 789 -325 43 -8 81 -17 84 -19 5 -6 -1 -7 -153 -37 -329 -64
-652 -202 -715 -305 -38 -61 -20 -157 38 -206 l31 -26 -10 -87 c-13 -103 1
-250 33 -354 96 -315 369 -504 728 -504 99 -1 126 3 193 26 196 68 325 214
335 378 5 76 -14 123 -70 175 -146 139 -438 129 -438 -14 0 -55 35 -95 97
-112 56 -15 105 -38 115 -54 15 -22 8 -74 -15 -107 -13 -21 -45 -45 -82 -64
-55 -28 -68 -30 -165 -30 -92 0 -112 3 -160 26 -80 38 -142 98 -183 176 -46
88 -62 170 -54 281 22 314 279 593 665 722 116 38 296 72 368 68 l59 -3 3 -42
c3 -41 2 -43 -46 -67 -70 -36 -104 -67 -137 -128 -69 -125 -12 -268 135 -337
46 -22 69 -26 145 -26 75 0 98 4 139 24 99 49 156 133 156 231 0 101 -63 189
-167 237 -53 24 -53 25 -53 70 l0 45 68 -7 c173 -17 366 -75 514 -152 398
-209 648 -621 648 -1069 0 -106 -8 -119 -72 -117 -55 3 -93 28 -156 103 -168
204 -200 227 -303 217 -81 -7 -138 -41 -167 -97 -23 -43 -23 -51 -17 -205 8
-206 23 -191 -235 -240 -154 -30 -240 -55 -324 -97 -124 -62 -207 -174 -208
-280 -1 -64 17 -102 70 -150 57 -52 116 -71 201 -66 61 3 74 7 101 33 62 59
48 132 -33 173 -27 13 -51 30 -53 37 -15 39 50 84 152 105 27 5 144 19 259 30
116 10 235 27 265 36 127 37 238 116 347 247 27 31 37 37 71 37 23 0 52 -4 66
-10 23 -8 26 -15 26 -55 0 -61 -42 -184 -90 -265 -45 -76 -86 -116 -235 -232
-122 -95 -246 -206 -327 -295 -153 -166 -218 -334 -153 -398 32 -32 62 -31
144 5 77 33 158 57 166 48 4 -3 -14 -42 -40 -86 -25 -44 -53 -101 -61 -127
-28 -95 -12 -184 39 -218 37 -24 133 -22 198 3 28 12 53 19 54 18 2 -2 14 -35
27 -74 62 -179 188 -289 345 -302 62 -5 66 -4 59 14 -4 10 -21 69 -36 129 -84
323 -81 670 10 1370 16 127 38 325 47 440 l18 210 12 -170 c12 -154 27 -284
95 -830 17 -135 22 -228 22 -450 1 -335 -13 -444 -91 -697 -4 -15 1 -18 33
-18 139 1 267 89 339 233 19 38 37 84 41 103 3 19 10 36 14 39 5 3 32 -4 60
-15 64 -25 151 -26 191 -3 18 11 35 34 45 60 30 79 4 184 -79 313 -35 54 -36
55 -13 58 20 3 60 -10 201 -66 116 -45 160 63 86 211 -68 139 -218 297 -475
501 -81 65 -161 132 -177 150 -48 52 -117 203 -134 291 -19 96 -12 106 67 113
l53 4 77 -84 c152 -168 247 -208 566 -239 250 -24 301 -32 358 -59 40 -20 70
-62 58 -81 -3 -5 -23 -17 -45 -26 -72 -28 -97 -89 -64 -152 23 -45 75 -64 161
-59 59 4 83 11 120 34 75 46 107 93 112 164 4 53 0 69 -27 124 -70 143 -198
212 -503 271 -164 32 -203 43 -223 65 -19 21 -20 39 -10 205 7 126 6 132 -17
175 -29 53 -93 91 -167 98 -98 9 -153 -27 -269 -173 -43 -55 -90 -108 -104
-117 -40 -26 -102 -40 -132 -28 -26 9 -26 10 -26 117 0 468 268 888 694 1089
144 67 311 114 469 130 l67 7 0 -46 c0 -45 0 -46 -52 -70 -72 -33 -109 -66
-143 -129 -57 -103 -27 -228 74 -305 122 -94 329 -78 432 34 52 57 69 98 69
170 0 99 -74 198 -176 235 -32 11 -34 15 -34 60 l0 48 64 0 c137 0 384 -64
528 -136 282 -142 463 -365 499 -616 32 -217 -58 -411 -228 -495 -53 -25 -68
-28 -163 -28 -97 0 -110 2 -165 30 -71 35 -105 80 -105 136 0 46 17 59 105 85
76 21 115 59 115 109 0 50 -14 71 -63 97 -33 17 -58 22 -117 21 -130 -1 -255
-62 -306 -150 -71 -121 4 -318 163 -427 133 -90 272 -119 449 -93 188 27 314
82 426 185 170 158 254 403 227 666 -9 88 -9 88 17 109 35 27 64 92 64 145 0
39 -5 49 -54 97 -91 91 -312 186 -593 254 -67 16 -143 33 -170 37 -71 10 -85
21 -38 29 387 66 764 215 834 329 38 61 18 164 -40 209 l-29 23 9 86 c14 142
-6 297 -56 418 -82 203 -246 347 -463 410 -106 31 -310 39 -399 15 -193 -50
-339 -192 -370 -361 -29 -153 101 -282 303 -301 154 -14 248 73 186 174 -15
26 -32 36 -87 53 -97 30 -113 42 -113 89 0 55 35 100 105 136 54 27 67 30 159
30 92 0 107 -3 166 -31 236 -113 307 -413 166 -699 -130 -263 -415 -454 -782
-525 -58 -11 -136 -20 -175 -20 l-69 0 0 46 c0 43 2 46 38 61 101 42 172 139
172 236 0 131 -96 231 -250 259 -101 19 -204 -10 -274 -78 -108 -105 -109
-242 -3 -349 33 -33 69 -57 97 -67 44 -14 45 -15 48 -63 l3 -48 -72 7 c-221
20 -446 100 -633 223 -39 26 -113 88 -165 138 -184 178 -301 401 -346 659 -18
108 -20 287 -3 304 7 7 30 12 52 12 64 0 115 -38 200 -149 42 -55 88 -109 104
-121 61 -49 135 -62 217 -39 120 33 154 124 126 340 -17 129 -1 145 177 179
272 51 394 96 484 179 67 61 101 127 106 206 4 55 1 64 -30 109 -45 66 -117
107 -203 114 -41 3 -76 0 -95 -8 -79 -33 -107 -126 -51 -172 15 -14 42 -30 59
-37 78 -32 28 -98 -98 -129 -25 -6 -124 -18 -220 -27 -260 -24 -327 -37 -425
-84 -83 -40 -169 -113 -247 -208 -23 -29 -32 -33 -76 -33 -33 0 -57 6 -71 18
-22 17 -22 18 -6 97 18 90 77 220 126 279 18 21 96 89 173 150 348 277 507
466 523 620 5 46 2 55 -22 84 -15 18 -36 32 -49 32 -12 0 -59 -16 -103 -35
-45 -19 -102 -38 -128 -42 l-46 -6 51 84 c94 155 106 277 31 343 -33 30 -113
32 -190 6 -35 -11 -66 -19 -68 -16 -3 3 -16 35 -28 71 -61 173 -193 289 -346
302 -32 3 -59 3 -59 0 0 -4 11 -46 26 -94 56 -193 68 -304 69 -603 0 -165 -5
-317 -13 -380 -7 -58 -31 -249 -52 -425 -22 -176 -46 -396 -53 -490 l-13 -170
-17 212 c-10 116 -31 314 -48 440 -55 422 -61 487 -66 738 -4 202 -2 276 12
385 14 117 58 317 80 373 6 15 1 17 -36 16 -24 0 -66 -7 -93 -15z m189 -2395
c69 -487 408 -883 890 -1039 55 -18 109 -36 119 -39 14 -5 -13 -18 -97 -45
-505 -163 -837 -544 -912 -1048 -8 -54 -15 -113 -16 -130 -1 -18 -9 23 -19 92
-40 272 -113 449 -266 646 -158 204 -399 363 -679 449 -100 31 -102 26 35 70
345 110 631 347 780 650 75 153 115 295 137 490 4 40 9 57 10 40 2 -16 10 -78
18 -136z"/>
</g>
</svg>
